<svg xmlns="http://www.w3.org/2000/svg" viewBox="0 0 256 256" role="img" aria-label="MindFlow favicon">
  <defs>
    <linearGradient id="bg" x1="36" y1="28" x2="212" y2="220" gradientUnits="userSpaceOnUse">
      <stop offset="0" stop-color="#44d0ff" />
      <stop offset="0.55" stop-color="#4e73ff" />
      <stop offset="1" stop-color="#ff8a2b" />
    </linearGradient>
    <linearGradient id="brain" x1="78" y1="76" x2="158" y2="156" gradientUnits="userSpaceOnUse">
      <stop offset="0" stop-color="#c5fffb" />
      <stop offset="1" stop-color="#8be3ff" />
    </linearGradient>
    <linearGradient id="orbit" x1="142" y1="96" x2="220" y2="196" gradientUnits="userSpaceOnUse">
      <stop offset="0" stop-color="#ffe68a" />
      <stop offset="0.45" stop-color="#ff7b48" />
      <stop offset="1" stop-color="#ff4fd8" />
    </linearGradient>
    <filter id="shadow" x="-20%" y="-20%" width="140%" height="140%">
      <feDropShadow dx="0" dy="10" stdDeviation="10" flood-color="#173063" flood-opacity="0.24" />
    </filter>
  </defs>

  <circle cx="128" cy="128" r="112" fill="url(#bg)" />

  <g filter="url(#shadow)">
    <path
      fill="#2e3f93"
      d="M110 56c-17 0-31 11-37 25-23 2-41 21-41 45 0 18 10 34 26 42 3 25 24 44 50 44 8 0 15-2 22-5 11 8 24 13 39 13 37 0 67-30 67-67 0-31-21-57-49-65-8-18-26-32-47-32-12 0-22 4-30 10z"
    />
    <path
      fill="url(#brain)"
      d="M102 68c-13 0-24 8-29 20-19 2-33 17-33 36 0 15 9 29 22 35 2 20 19 35 40 35 7 0 13-2 18-5 9 7 21 11 33 11 32 0 58-26 58-58 0-27-18-49-43-56-6-15-22-26-39-26-10 0-20 3-27 8z"
    />

    <g fill="none" stroke="#2f4ea3" stroke-linecap="round" stroke-width="7">
      <path d="M73 109c13-1 25 5 31 16" />
      <path d="M74 136c15-2 29 5 38 17" />
      <path d="M83 161c13 1 23 8 28 18" />
      <path d="M116 84c-4 17-2 35 6 50" />
      <path d="M143 78c-5 13-5 28 0 41" />
      <path d="M169 89c-8 12-10 28-5 42" />
      <path d="M120 132c13-4 27-1 38 8" />
      <path d="M125 162c11-3 23 0 31 8" />
    </g>

    <path
      fill="#4a2ba6"
      d="M99 85c12 7 23 18 31 31 8 13 14 28 18 44-14-9-26-21-35-35-9-13-14-27-14-40z"
      opacity="0.92"
    />
    <path
      fill="#6436c2"
      d="M83 96c12 6 23 16 31 29 8 12 13 26 16 40-13-8-24-18-33-31-8-12-13-25-14-38z"
      opacity="0.88"
    />

    <path
      fill="none"
      stroke="url(#orbit)"
      stroke-linecap="round"
      stroke-width="19"
      d="M147 165c28 10 58 0 76-25 13-19 18-43 12-66"
    />
    <circle cx="208" cy="82" r="18" fill="#ffe680" />
    <circle cx="208" cy="82" r="10" fill="#fff5c6" />
  </g>
</svg>